<svg width="16" height="20" viewBox="0 0 16 20" fill="none" xmlns="http://www.w3.org/2000/svg">
<path d="M11.1233 16.8759H4.87484C4.52977 16.8759 4.25 16.5961 4.25 16.2511C4.25 15.906 4.52977 15.6262 4.87484 15.6262H11.1233C11.4684 15.6262 11.7481 15.906 11.7481 16.2511C11.7481 16.5961 11.4684 16.8759 11.1233 16.8759Z" fill="#0066FF"/>
<path d="M10.3157 11.4353C10.0717 11.1913 9.67609 11.1913 9.43209 11.4353L8.62421 12.2432V8.44052C8.62421 8.09545 8.34447 7.81567 7.99937 7.81567C7.6543 7.81567 7.37452 8.09545 7.37452 8.44052V12.2431L6.56668 11.4353C6.32264 11.1913 5.92704 11.1913 5.683 11.4353C5.439 11.6793 5.439 12.0749 5.683 12.319C7.69788 14.3339 7.59962 14.2624 7.76025 14.3289C7.99046 14.4243 8.26004 14.3747 8.44121 14.1935L10.3157 12.319C10.5598 12.075 10.5598 11.6793 10.3157 11.4353Z" fill="#0066FF"/>
<path d="M15.4957 6.24437C15.4932 6.07672 15.4247 5.9232 15.313 5.81147C9.33842 -0.163064 9.66838 0.146389 9.54247 0.0789842C9.34065 -0.0289571 9.9105 0.00509673 1.85708 0.00509673C1.10879 0.00509673 0.5 0.613887 0.5 1.36217V18.6429C0.5 19.3912 1.10879 20 1.85708 20H14.1391C14.8874 20 15.4962 19.3912 15.4962 18.6429C15.4962 18.4751 15.4964 6.29459 15.4957 6.24437ZM9.87262 5.52124V2.13842L13.3629 5.62867C9.73215 5.62867 9.97498 5.62988 9.95838 5.62648C9.90949 5.61645 9.87262 5.57306 9.87262 5.52124ZM14.2465 18.6429C14.2465 18.7021 14.1984 18.7503 14.1391 18.7503H1.85708C1.79783 18.7503 1.74968 18.7021 1.74968 18.6429V1.36213C1.74968 1.30289 1.79783 1.25474 1.85708 1.25474H8.62294V5.52124C8.62294 6.26952 9.23173 6.87831 9.98002 6.87831H14.2465V18.6429Z" fill="#0066FF"/>
</svg>
