<svg width="166" height="118" viewBox="0 0 166 118" fill="none" xmlns="http://www.w3.org/2000/svg">
<path d="M36.8113 117.589C16.5123 117.589 0 101.077 0 80.7776C0 61.1953 15.3675 45.134 34.6761 44.0244C35.0104 40.4149 34.7596 30.5895 25.3446 16.9218C24.6328 15.8908 24.762 14.5003 25.646 13.6163C29.4987 9.76356 31.8798 7.33709 33.5463 5.64C35.7274 3.42105 36.7228 2.40794 38.1792 1.08564C38.6731 0.637448 39.2961 0.412054 39.922 0.412054C40.5297 0.412054 41.1351 0.624724 41.624 1.04777C58.03 15.3235 76.2547 44.8199 73.6179 80.9651C72.0728 102.186 56.5938 117.589 36.8113 117.589ZM39.9471 6.54937C39.2406 7.24579 38.435 8.06647 37.247 9.2749C35.8033 10.7463 33.8225 12.7627 30.8184 15.7769C42.2447 33.3835 40.0864 45.9241 39.1418 47.7226C38.6933 48.5762 37.7738 49.1512 36.8113 49.1512C19.3745 49.1512 5.1875 63.3382 5.1875 80.7776C5.1875 98.2146 19.3745 112.402 36.8113 112.402C53.7975 112.402 67.1006 99.0225 68.4455 80.5903C71.4091 39.9361 47.2472 13.5403 39.9471 6.54937Z" fill="#EEEEEE" fill-opacity="0.4"/>
<path d="M165.732 80.9651V80.9677C164.182 102.186 148.701 117.589 128.923 117.589C108.624 117.589 92.1094 101.077 92.1094 80.7776C92.1094 61.1953 107.479 45.134 126.791 44.0244C127.125 40.4175 126.872 30.5973 117.454 16.9218C116.742 15.8908 116.872 14.5003 117.756 13.6163C121.593 9.77886 123.969 7.35734 125.636 5.66284C127.827 3.42884 128.827 2.41054 130.291 1.08331C130.785 0.637448 131.411 0.412054 132.034 0.412054C132.642 0.412054 133.247 0.624724 133.736 1.05036C150.142 15.3261 168.367 44.8222 165.732 80.9651ZM132.059 6.54937C131.347 7.25098 130.534 8.07658 129.336 9.29746C127.892 10.7668 125.919 12.7778 122.928 15.7769C134.354 33.3861 132.199 45.9241 131.256 47.7226C130.808 48.5736 129.886 49.1512 128.923 49.1512C111.484 49.1512 97.2969 63.3382 97.2969 80.7776C97.2969 98.2146 111.484 112.402 128.923 112.402C145.907 112.402 159.213 99.0225 160.56 80.5877V80.5903C163.521 39.9413 139.359 13.5403 132.059 6.54937Z" fill="#EEEEEE" fill-opacity="0.4"/>
</svg>
