<svg width="50" height="36" viewBox="0 0 50 36" fill="none" xmlns="http://www.w3.org/2000/svg">
<path d="M38.9115 35.647C45.0257 35.647 49.9993 30.6734 49.9993 24.5592C49.9993 18.6609 45.3705 13.8231 39.5547 13.4889C39.454 12.4017 39.5295 9.44228 42.3654 5.32549C42.5797 5.01494 42.5408 4.59611 42.2746 4.32986C41.1141 3.1694 40.3969 2.43853 39.895 1.92736C39.238 1.259 38.9382 0.953846 38.4995 0.555565C38.3508 0.420567 38.1631 0.352676 37.9746 0.352676C37.7915 0.352676 37.6092 0.416733 37.4619 0.544155C32.5204 4.84408 27.031 13.7285 27.8252 24.6156C28.2906 31.0075 32.9529 35.647 38.9115 35.647ZM37.967 2.20127C38.1798 2.41103 38.4225 2.65822 38.7803 3.02221C39.2151 3.46541 39.8118 4.07275 40.7166 4.98064C37.275 10.2838 37.925 14.0611 38.2096 14.6028C38.3447 14.8599 38.6216 15.0331 38.9115 15.0331C44.1636 15.0331 48.4368 19.3063 48.4368 24.5592C48.4368 29.8113 44.1636 34.0845 38.9115 34.0845C33.7952 34.0845 29.7883 30.0546 29.3832 24.5028C28.4905 12.2575 35.7682 4.30697 37.967 2.20127Z" fill="#FF7A41"/>
<path d="M0.0777988 24.6156V24.6164C0.54475 31.0075 5.2078 35.647 11.1648 35.647C17.279 35.647 22.2534 30.6734 22.2534 24.5592C22.2534 18.6609 17.6239 13.8231 11.8073 13.4889C11.7065 12.4025 11.7829 9.44463 14.6194 5.32549C14.8338 5.01494 14.7949 4.59611 14.5287 4.32986C13.3728 3.174 12.6572 2.44463 12.1551 1.93424C11.4952 1.26134 11.1938 0.954628 10.7529 0.554859C10.6041 0.420567 10.4157 0.352676 10.228 0.352676C10.0448 0.352676 9.86249 0.416733 9.7153 0.544937C4.77373 4.84486 -0.715637 13.7292 0.0777988 24.6156ZM10.2204 2.20127C10.4347 2.41259 10.6796 2.66127 11.0405 3.029C11.4754 3.47158 12.0697 4.07728 12.9708 4.98064C9.52913 10.2846 10.1783 14.0611 10.4622 14.6028C10.5972 14.8592 10.8749 15.0331 11.1648 15.0331C16.4177 15.0331 20.6909 19.3063 20.6909 24.5592C20.6909 29.8113 16.4177 34.0845 11.1648 34.0845C6.04936 34.0845 2.04163 30.0546 1.63577 24.502V24.5028C0.743893 12.2591 8.02155 4.30697 10.2204 2.20127Z" fill="#FF7A41"/>
</svg>
