<svg width="48" height="48" viewBox="0 0 48 48" fill="none" xmlns="http://www.w3.org/2000/svg">
<path d="M33.3747 0.041748H14.6247C14.0494 0.041748 13.583 0.508118 13.583 1.08341V7.33342C13.583 7.90871 14.0494 8.37508 14.6247 8.37508H33.3747C33.95 8.37508 34.4163 7.90871 34.4163 7.33342V1.08341C34.4163 0.508118 33.95 0.041748 33.3747 0.041748Z" fill="url(#paint0_linear_389_9279)"/>
<path d="M33.3747 12.5417H14.6247C14.0494 12.5417 13.583 13.0081 13.583 13.5834V19.8334C13.583 20.4087 14.0494 20.8751 14.6247 20.8751H33.3747C33.95 20.8751 34.4163 20.4087 34.4163 19.8334V13.5834C34.4163 13.0081 33.95 12.5417 33.3747 12.5417Z" fill="url(#paint1_linear_389_9279)"/>
<path d="M15.6665 8.375H32.3332V12.5417H15.6665V8.375Z" fill="#54A5FF"/>
<path d="M19.833 5.25008H17.7497C17.4734 5.25008 17.2085 5.14033 17.0131 4.94498C16.8178 4.74963 16.708 4.48468 16.708 4.20841C16.708 3.93215 16.8178 3.6672 17.0131 3.47185C17.2085 3.27649 17.4734 3.16675 17.7497 3.16675H19.833C20.1093 3.16675 20.3742 3.27649 20.5696 3.47185C20.7649 3.6672 20.8747 3.93215 20.8747 4.20841C20.8747 4.48468 20.7649 4.74963 20.5696 4.94498C20.3742 5.14033 20.1093 5.25008 19.833 5.25008Z" fill="url(#paint2_linear_389_9279)"/>
<path d="M19.833 17.7501H17.7497C17.4734 17.7501 17.2085 17.6403 17.0131 17.445C16.8178 17.2496 16.708 16.9847 16.708 16.7084C16.708 16.4321 16.8178 16.1672 17.0131 15.9718C17.2085 15.7765 17.4734 15.6667 17.7497 15.6667H19.833C20.1093 15.6667 20.3742 15.7765 20.5696 15.9718C20.7649 16.1672 20.8747 16.4321 20.8747 16.7084C20.8747 16.9847 20.7649 17.2496 20.5696 17.445C20.3742 17.6403 20.1093 17.7501 19.833 17.7501Z" fill="url(#paint3_linear_389_9279)"/>
<path d="M31.2913 4.20841C31.2913 3.93215 31.1816 3.6672 30.9862 3.47185C30.7909 3.27649 30.5259 3.16675 30.2497 3.16675C29.9734 3.16675 29.7085 3.27649 29.5131 3.47185C29.3178 3.6672 29.208 3.93215 29.208 4.20841C29.208 4.48468 29.3178 4.74963 29.5131 4.94498C29.7085 5.14033 29.9734 5.25008 30.2497 5.25008C30.5259 5.25008 30.7909 5.14033 30.9862 4.94498C31.1816 4.74963 31.2913 4.48468 31.2913 4.20841Z" fill="url(#paint4_linear_389_9279)"/>
<path d="M31.2913 16.7084C31.2913 16.4321 31.1816 16.1672 30.9862 15.9718C30.7909 15.7765 30.5259 15.6667 30.2497 15.6667C29.9734 15.6667 29.7085 15.7765 29.5131 15.9718C29.3178 16.1672 29.208 16.4321 29.208 16.7084C29.208 16.9847 29.3178 17.2496 29.5131 17.445C29.7085 17.6403 29.9734 17.7501 30.2497 17.7501C30.5259 17.7501 30.7909 17.6403 30.9862 17.445C31.1816 17.2496 31.2913 16.9847 31.2913 16.7084Z" fill="url(#paint5_linear_389_9279)"/>
<path d="M19.8332 27.125H1.08317C0.507874 27.125 0.0415039 27.5914 0.0415039 28.1667V34.4167C0.0415039 34.992 0.507874 35.4583 1.08317 35.4583H19.8332C20.4085 35.4583 20.8748 34.992 20.8748 34.4167V28.1667C20.8748 27.5914 20.4085 27.125 19.8332 27.125Z" fill="url(#paint6_linear_389_9279)"/>
<path d="M19.8332 39.625H1.08317C0.507874 39.625 0.0415039 40.0914 0.0415039 40.6667V46.9167C0.0415039 47.492 0.507874 47.9583 1.08317 47.9583H19.8332C20.4085 47.9583 20.8748 47.492 20.8748 46.9167V40.6667C20.8748 40.0914 20.4085 39.625 19.8332 39.625Z" fill="url(#paint7_linear_389_9279)"/>
<path d="M2.125 35.4585H18.7917V39.6252H2.125V35.4585Z" fill="#54A5FF"/>
<path d="M6.2915 32.3333H4.20817C3.9319 32.3333 3.66695 32.2236 3.4716 32.0282C3.27625 31.8329 3.1665 31.5679 3.1665 31.2917C3.1665 31.0154 3.27625 30.7504 3.4716 30.5551C3.66695 30.3597 3.9319 30.25 4.20817 30.25H6.2915C6.56777 30.25 6.83272 30.3597 7.02807 30.5551C7.22342 30.7504 7.33317 31.0154 7.33317 31.2917C7.33317 31.5679 7.22342 31.8329 7.02807 32.0282C6.83272 32.2236 6.56777 32.3333 6.2915 32.3333Z" fill="url(#paint8_linear_389_9279)"/>
<path d="M6.2915 44.8333H4.20817C3.9319 44.8333 3.66695 44.7236 3.4716 44.5282C3.27625 44.3329 3.1665 44.0679 3.1665 43.7917C3.1665 43.5154 3.27625 43.2504 3.4716 43.0551C3.66695 42.8597 3.9319 42.75 4.20817 42.75H6.2915C6.56777 42.75 6.83272 42.8597 7.02807 43.0551C7.22342 43.2504 7.33317 43.5154 7.33317 43.7917C7.33317 44.0679 7.22342 44.3329 7.02807 44.5282C6.83272 44.7236 6.56777 44.8333 6.2915 44.8333Z" fill="url(#paint9_linear_389_9279)"/>
<path d="M17.7498 31.2917C17.7498 31.0154 17.6401 30.7504 17.4447 30.5551C17.2494 30.3597 16.9844 30.25 16.7082 30.25C16.4319 30.25 16.167 30.3597 15.9716 30.5551C15.7762 30.7504 15.6665 31.0154 15.6665 31.2917C15.6665 31.5679 15.7762 31.8329 15.9716 32.0282C16.167 32.2236 16.4319 32.3333 16.7082 32.3333C16.9844 32.3333 17.2494 32.2236 17.4447 32.0282C17.6401 31.8329 17.7498 31.5679 17.7498 31.2917Z" fill="url(#paint10_linear_389_9279)"/>
<path d="M17.7498 43.7917C17.7498 43.5154 17.6401 43.2504 17.4447 43.0551C17.2494 42.8597 16.9844 42.75 16.7082 42.75C16.4319 42.75 16.167 42.8597 15.9716 43.0551C15.7762 43.2504 15.6665 43.5154 15.6665 43.7917C15.6665 44.0679 15.7762 44.3329 15.9716 44.5282C16.167 44.7236 16.4319 44.8333 16.7082 44.8333C16.9844 44.8333 17.2494 44.7236 17.4447 44.5282C17.6401 44.3329 17.7498 44.0679 17.7498 43.7917Z" fill="url(#paint11_linear_389_9279)"/>
<path d="M46.9167 27.125H28.1667C27.5914 27.125 27.125 27.5914 27.125 28.1667V34.4167C27.125 34.992 27.5914 35.4583 28.1667 35.4583H46.9167C47.492 35.4583 47.9583 34.992 47.9583 34.4167V28.1667C47.9583 27.5914 47.492 27.125 46.9167 27.125Z" fill="url(#paint12_linear_389_9279)"/>
<path d="M46.9167 39.625H28.1667C27.5914 39.625 27.125 40.0914 27.125 40.6667V46.9167C27.125 47.492 27.5914 47.9583 28.1667 47.9583H46.9167C47.492 47.9583 47.9583 47.492 47.9583 46.9167V40.6667C47.9583 40.0914 47.492 39.625 46.9167 39.625Z" fill="url(#paint13_linear_389_9279)"/>
<path d="M29.208 35.4585H45.8747V39.6252H29.208V35.4585Z" fill="#54A5FF"/>
<path d="M33.375 32.3333H31.2917C31.0154 32.3333 30.7504 32.2236 30.5551 32.0282C30.3597 31.8329 30.25 31.5679 30.25 31.2917C30.25 31.0154 30.3597 30.7504 30.5551 30.5551C30.7504 30.3597 31.0154 30.25 31.2917 30.25H33.375C33.6513 30.25 33.9162 30.3597 34.1116 30.5551C34.3069 30.7504 34.4167 31.0154 34.4167 31.2917C34.4167 31.5679 34.3069 31.8329 34.1116 32.0282C33.9162 32.2236 33.6513 32.3333 33.375 32.3333Z" fill="url(#paint14_linear_389_9279)"/>
<path d="M33.375 44.8333H31.2917C31.0154 44.8333 30.7504 44.7236 30.5551 44.5282C30.3597 44.3329 30.25 44.0679 30.25 43.7917C30.25 43.5154 30.3597 43.2504 30.5551 43.0551C30.7504 42.8597 31.0154 42.75 31.2917 42.75H33.375C33.6513 42.75 33.9162 42.8597 34.1116 43.0551C34.3069 43.2504 34.4167 43.5154 34.4167 43.7917C34.4167 44.0679 34.3069 44.3329 34.1116 44.5282C33.9162 44.7236 33.6513 44.8333 33.375 44.8333Z" fill="url(#paint15_linear_389_9279)"/>
<path d="M44.8333 31.2917C44.8333 31.0154 44.7236 30.7504 44.5282 30.5551C44.3329 30.3597 44.0679 30.25 43.7917 30.25C43.5154 30.25 43.2504 30.3597 43.0551 30.5551C42.8597 30.7504 42.75 31.0154 42.75 31.2917C42.75 31.5679 42.8597 31.8329 43.0551 32.0282C43.2504 32.2236 43.5154 32.3333 43.7917 32.3333C44.0679 32.3333 44.3329 32.2236 44.5282 32.0282C44.7236 31.8329 44.8333 31.5679 44.8333 31.2917Z" fill="url(#paint16_linear_389_9279)"/>
<path d="M44.8333 43.7917C44.8333 43.5154 44.7236 43.2504 44.5282 43.0551C44.3329 42.8597 44.0679 42.75 43.7917 42.75C43.5154 42.75 43.2504 42.8597 43.0551 43.0551C42.8597 43.2504 42.75 43.5154 42.75 43.7917C42.75 44.0679 42.8597 44.3329 43.0551 44.5282C43.2504 44.7236 43.5154 44.8333 43.7917 44.8333C44.0679 44.8333 44.3329 44.7236 44.5282 44.5282C44.7236 44.3329 44.8333 44.0679 44.8333 43.7917Z" fill="url(#paint17_linear_389_9279)"/>
<path d="M46.8333 20.4792C46.5417 19.7605 45.9479 19.8334 44.8333 19.8334V10.4584C44.8333 8.52454 44.0651 6.66988 42.6977 5.30243C41.3302 3.93497 39.4755 3.16675 37.5417 3.16675C37.2654 3.16675 37.0004 3.27649 36.8051 3.47185C36.6097 3.6672 36.5 3.93215 36.5 4.20841C36.5 4.48468 36.6097 4.74963 36.8051 4.94498C37.0004 5.14033 37.2654 5.25008 37.5417 5.25008C38.923 5.25008 40.2478 5.79882 41.2245 6.77557C42.2013 7.75232 42.75 9.07708 42.75 10.4584V19.8334C41.7708 19.8334 41.0625 19.7084 40.75 20.4792C40.4375 21.2501 41.0521 21.6876 43.0521 23.698C43.1489 23.7956 43.2641 23.8731 43.3911 23.926C43.518 23.9789 43.6542 24.0061 43.7917 24.0061C43.9292 24.0061 44.0653 23.9789 44.1923 23.926C44.3192 23.8731 44.4344 23.7956 44.5312 23.698C46.4792 21.7501 47.1979 21.3334 46.8333 20.4792Z" fill="#FFB369"/>
<path d="M10.4584 3.16675C8.52453 3.16675 6.66986 3.93497 5.30241 5.30243C3.93496 6.66988 3.16673 8.52454 3.16673 10.4584V19.8334C2.18756 19.8334 1.47923 19.7084 1.16673 20.4792C0.85423 21.2501 1.53131 21.7501 3.46881 23.698C3.56565 23.7956 3.68086 23.8731 3.8078 23.926C3.93473 23.9789 4.07088 24.0061 4.2084 24.0061C4.34591 24.0061 4.48206 23.9789 4.609 23.926C4.73593 23.8731 4.85114 23.7956 4.94798 23.698C6.88548 21.7501 7.60423 21.3334 7.25006 20.4792C6.8959 19.6251 6.38548 19.8334 5.25006 19.8334V10.4584C5.25006 9.07708 5.7988 7.75232 6.77555 6.77557C7.7523 5.79882 9.07706 5.25008 10.4584 5.25008C10.7347 5.25008 10.9996 5.14033 11.195 4.94498C11.3903 4.74963 11.5001 4.48468 11.5001 4.20841C11.5001 3.93215 11.3903 3.6672 11.195 3.47185C10.9996 3.27649 10.7347 3.16675 10.4584 3.16675Z" fill="#FFB369"/>
<defs>
<linearGradient id="paint0_linear_389_9279" x1="13.583" y1="4.20841" x2="34.4163" y2="4.20841" gradientUnits="userSpaceOnUse">
<stop stop-color="#54A5FF"/>
<stop offset="1" stop-color="#8AD3FE"/>
</linearGradient>
<linearGradient id="paint1_linear_389_9279" x1="-1.00033" y1="16.7084" x2="0.0413407" y2="16.7084" gradientUnits="userSpaceOnUse">
<stop stop-color="#54A5FF"/>
<stop offset="1" stop-color="#8AD3FE"/>
</linearGradient>
<linearGradient id="paint2_linear_389_9279" x1="16.7184" y1="4.20841" x2="20.8643" y2="4.20841" gradientUnits="userSpaceOnUse">
<stop stop-color="#D3E6F5"/>
<stop offset="1" stop-color="#F0F7FC"/>
</linearGradient>
<linearGradient id="paint3_linear_389_9279" x1="16.7184" y1="16.7084" x2="20.8643" y2="16.7084" gradientUnits="userSpaceOnUse">
<stop stop-color="#D3E6F5"/>
<stop offset="1" stop-color="#F0F7FC"/>
</linearGradient>
<linearGradient id="paint4_linear_389_9279" x1="29.208" y1="-0.999919" x2="31.2913" y2="-0.999919" gradientUnits="userSpaceOnUse">
<stop stop-color="#D3E6F5"/>
<stop offset="1" stop-color="#F0F7FC"/>
</linearGradient>
<linearGradient id="paint5_linear_389_9279" x1="29.208" y1="16.7084" x2="31.2913" y2="16.7084" gradientUnits="userSpaceOnUse">
<stop stop-color="#D3E6F5"/>
<stop offset="1" stop-color="#F0F7FC"/>
</linearGradient>
<linearGradient id="paint6_linear_389_9279" x1="0.0415039" y1="31.2917" x2="20.8748" y2="31.2917" gradientUnits="userSpaceOnUse">
<stop stop-color="#54A5FF"/>
<stop offset="1" stop-color="#8AD3FE"/>
</linearGradient>
<linearGradient id="paint7_linear_389_9279" x1="0.0415039" y1="43.7917" x2="20.8748" y2="43.7917" gradientUnits="userSpaceOnUse">
<stop stop-color="#54A5FF"/>
<stop offset="1" stop-color="#8AD3FE"/>
</linearGradient>
<linearGradient id="paint8_linear_389_9279" x1="3.17692" y1="31.2917" x2="7.32275" y2="31.2917" gradientUnits="userSpaceOnUse">
<stop stop-color="#D3E6F5"/>
<stop offset="1" stop-color="#F0F7FC"/>
</linearGradient>
<linearGradient id="paint9_linear_389_9279" x1="3.17692" y1="43.7917" x2="7.32275" y2="43.7917" gradientUnits="userSpaceOnUse">
<stop stop-color="#D3E6F5"/>
<stop offset="1" stop-color="#F0F7FC"/>
</linearGradient>
<linearGradient id="paint10_linear_389_9279" x1="15.6665" y1="31.2917" x2="17.7498" y2="31.2917" gradientUnits="userSpaceOnUse">
<stop stop-color="#D3E6F5"/>
<stop offset="1" stop-color="#F0F7FC"/>
</linearGradient>
<linearGradient id="paint11_linear_389_9279" x1="15.6665" y1="43.7917" x2="17.7498" y2="43.7917" gradientUnits="userSpaceOnUse">
<stop stop-color="#D3E6F5"/>
<stop offset="1" stop-color="#F0F7FC"/>
</linearGradient>
<linearGradient id="paint12_linear_389_9279" x1="27.125" y1="31.2917" x2="47.9583" y2="31.2917" gradientUnits="userSpaceOnUse">
<stop stop-color="#54A5FF"/>
<stop offset="1" stop-color="#8AD3FE"/>
</linearGradient>
<linearGradient id="paint13_linear_389_9279" x1="27.125" y1="43.7917" x2="47.9583" y2="43.7917" gradientUnits="userSpaceOnUse">
<stop stop-color="#54A5FF"/>
<stop offset="1" stop-color="#8AD3FE"/>
</linearGradient>
<linearGradient id="paint14_linear_389_9279" x1="30.2604" y1="31.2917" x2="34.4063" y2="31.2917" gradientUnits="userSpaceOnUse">
<stop stop-color="#D3E6F5"/>
<stop offset="1" stop-color="#F0F7FC"/>
</linearGradient>
<linearGradient id="paint15_linear_389_9279" x1="30.2604" y1="43.7917" x2="34.4063" y2="43.7917" gradientUnits="userSpaceOnUse">
<stop stop-color="#D3E6F5"/>
<stop offset="1" stop-color="#F0F7FC"/>
</linearGradient>
<linearGradient id="paint16_linear_389_9279" x1="42.75" y1="31.2917" x2="44.8333" y2="31.2917" gradientUnits="userSpaceOnUse">
<stop stop-color="#D3E6F5"/>
<stop offset="1" stop-color="#F0F7FC"/>
</linearGradient>
<linearGradient id="paint17_linear_389_9279" x1="42.75" y1="43.7917" x2="44.8333" y2="43.7917" gradientUnits="userSpaceOnUse">
<stop stop-color="#D3E6F5"/>
<stop offset="1" stop-color="#F0F7FC"/>
</linearGradient>
</defs>
</svg>
