<svg width="62" height="62" viewBox="0 0 62 62" fill="none" xmlns="http://www.w3.org/2000/svg">
<path d="M37 42.5594L51.9931 59.6654C55.2773 60.5207 61.4174 60.2641 59.7039 52.3954L42.9972 37" stroke="#000F5C" stroke-width="3"/>
<path d="M16.5 23L20 19.5L29 26L42 10.5" stroke="#000F5C" stroke-width="3"/>
<path d="M18 27C18 30.3137 15.5376 33 12.5 33C9.46243 33 7 30.3137 7 27C7 23.6863 9.46243 21 12.5 21C15.5376 21 18 23.6863 18 27ZM9.80484 27C9.80484 28.6238 11.0115 29.9402 12.5 29.9402C13.9885 29.9402 15.1952 28.6238 15.1952 27C15.1952 25.3762 13.9885 24.0598 12.5 24.0598C11.0115 24.0598 9.80484 25.3762 9.80484 27Z" fill="#0066FF"/>
<path d="M29 16.5C29 19.5376 26.5376 22 23.5 22C20.4624 22 18 19.5376 18 16.5C18 13.4624 20.4624 11 23.5 11C26.5376 11 29 13.4624 29 16.5ZM20.6976 16.5C20.6976 18.0477 21.9523 19.3024 23.5 19.3024C25.0477 19.3024 26.3024 18.0477 26.3024 16.5C26.3024 14.9523 25.0477 13.6976 23.5 13.6976C21.9523 13.6976 20.6976 14.9523 20.6976 16.5Z" fill="#0066FF"/>
<path d="M39 27.5C39 30.5376 36.5376 33 33.5 33C30.4624 33 28 30.5376 28 27.5C28 24.4624 30.4624 22 33.5 22C36.5376 22 39 24.4624 39 27.5ZM30.5903 27.5C30.5903 29.107 31.893 30.4097 33.5 30.4097C35.107 30.4097 36.4097 29.107 36.4097 27.5C36.4097 25.893 35.107 24.5903 33.5 24.5903C31.893 24.5903 30.5903 25.893 30.5903 27.5Z" fill="#0066FF"/>
<path d="M47 23.5C47 36.4787 36.4787 47 23.5 47C10.5213 47 0 36.4787 0 23.5C0 10.5213 10.5213 0 23.5 0C36.4787 0 47 10.5213 47 23.5ZM2.7771 23.5C2.7771 34.9449 12.0551 44.2229 23.5 44.2229C34.9449 44.2229 44.2229 34.9449 44.2229 23.5C44.2229 12.0551 34.9449 2.7771 23.5 2.7771C12.0551 2.7771 2.7771 12.0551 2.7771 23.5Z" fill="#000F5C"/>
<path d="M51 7.5C51 10.5376 48.5376 13 45.5 13C42.4624 13 40 10.5376 40 7.5C40 4.46243 42.4624 2 45.5 2C48.5376 2 51 4.46243 51 7.5ZM42.3739 7.5C42.3739 9.2265 43.7735 10.6261 45.5 10.6261C47.2265 10.6261 48.6261 9.2265 48.6261 7.5C48.6261 5.7735 47.2265 4.3739 45.5 4.3739C43.7735 4.3739 42.3739 5.7735 42.3739 7.5Z" fill="#0066FF"/>
</svg>
