<svg width="68" height="68" viewBox="0 0 68 68" fill="none" xmlns="http://www.w3.org/2000/svg">
<g clip-path="url(#clip0_449_29826)">
<path d="M66.7464 26.9253L59.7268 26.1461C59.2224 24.4917 58.5582 22.8904 57.7435 21.3648L62.155 15.8511C62.6053 15.2875 62.5601 14.4757 62.0503 13.9655L54.0347 5.95851C53.5246 5.44864 52.7127 5.40349 52.1492 5.85372L46.6353 10.2638C45.1097 9.4491 43.5084 8.78477 41.8541 8.28048L41.0749 1.26092C40.9955 0.543071 40.3889 0 39.6668 0H28.3335C27.6114 0 27.0047 0.543071 26.9253 1.26079L26.1461 8.27331C24.4917 8.77773 22.8904 9.44193 21.3648 10.2566L15.8511 5.84509C15.2875 5.39485 14.4757 5.44001 13.9655 5.94988L5.95001 13.9655C5.44054 14.4761 5.39605 15.2879 5.84655 15.8511L10.2638 21.3648C9.4491 22.8904 8.78477 24.4917 8.28048 26.1461L1.26092 26.9253C0.543071 27.0047 0 27.6112 0 28.3333V39.6667C0 40.3888 0.543071 40.9955 1.26079 41.0749L8.27331 41.8541C8.77773 43.5084 9.44193 45.1097 10.2566 46.6353L5.84509 52.1491C5.39485 52.7126 5.44001 53.5245 5.94988 54.0346L13.9654 62.0501C14.4778 62.5575 15.2895 62.5989 15.8509 62.1464L21.3647 57.7364C22.8903 58.551 24.4916 59.2154 26.1459 59.7197L26.9251 66.7392C27.0046 67.4569 27.6111 68.0001 28.3333 68H39.6667C40.3864 68.0004 40.992 67.4612 41.0749 66.7463L41.8541 59.7267C43.5084 59.2223 45.1097 58.5581 46.6353 57.7434L52.1491 62.1549C52.7126 62.6052 53.5245 62.56 54.0346 62.0501L62.0416 54.0346C62.5515 53.5245 62.5966 52.7126 62.1464 52.1491L57.7364 46.6353C58.551 45.1097 59.2154 43.5084 59.7197 41.8541L66.7392 41.0749C67.4569 40.9955 68.0001 40.3889 68 39.6667V28.3333C68.0005 27.6136 67.4613 27.008 66.7464 26.9253ZM65.1671 38.3988H65.1668L58.4703 39.144C57.8894 39.2086 57.4078 39.6232 57.2576 40.1881C56.712 42.2473 55.8939 44.2245 54.8251 46.0673C54.5315 46.5731 54.5787 47.2072 54.9441 47.6638L59.1559 52.9281L52.9353 59.1487L47.671 54.9369C47.2144 54.5716 46.5802 54.5243 46.0745 54.8179C44.2317 55.8867 42.2545 56.7047 40.1953 57.2504C39.6304 57.4005 39.2158 57.8822 39.1512 58.4631L38.406 65.1668H29.6085L28.8562 58.4631C28.7917 57.8822 28.377 57.4006 27.8122 57.2504C25.7529 56.7048 23.7757 55.8867 21.933 54.8179C21.4272 54.5243 20.793 54.5716 20.3364 54.9369L15.0721 59.1487L8.85157 52.9281L13.0633 47.6709C13.4287 47.2143 13.476 46.5801 13.1823 46.0743C12.1136 44.2316 11.2956 42.2544 10.7499 40.1951C10.5998 39.6303 10.1181 39.2156 9.53715 39.1511L2.83343 38.4059V29.6083L9.53715 28.8561C10.1181 28.7915 10.5997 28.3769 10.7499 27.8121C11.2955 25.7528 12.1136 23.7756 13.1823 21.9328C13.476 21.4271 13.4287 20.7929 13.0633 20.3363L8.85157 15.072L15.0721 8.85144L20.3436 13.0632C20.8002 13.4286 21.4344 13.4758 21.9401 13.1822C23.7829 12.1135 25.7601 11.2955 27.8194 10.7497C28.3842 10.5997 28.7989 10.1179 28.8634 9.53702L29.6086 2.83329H38.3991L39.1443 9.53702C39.2089 10.1179 39.6235 10.5995 40.1883 10.7497C42.2476 11.2953 44.2248 12.1135 46.0676 13.1822C46.5733 13.4758 47.2075 13.4286 47.6641 13.0632L52.9284 8.85144L59.149 15.0792L54.9372 20.3435C54.5718 20.8001 54.5246 21.4343 54.8182 21.94C55.8869 23.7828 56.7049 25.76 57.2507 27.8192C57.4007 28.3841 57.8825 28.7987 58.4634 28.8633L65.1671 29.6085V38.3988Z" fill="#000F5C"/>
<path d="M51.3052 24.3157C45.9566 14.7566 33.8718 11.3432 24.3127 16.6917C14.7537 22.0402 11.3402 34.1253 16.6889 43.6843C16.7522 43.7973 16.8307 43.9012 16.9224 43.993C17.4751 44.5467 18.3722 44.5473 18.9258 43.9946L28.1809 34.7395L31.4505 39.1C31.4907 39.1535 31.5346 39.2043 31.582 39.2516C32.1353 39.8049 33.0322 39.8049 33.5855 39.2516L42.5005 30.3365V35.4167H45.3338V26.9167H45.3335C45.3335 26.1344 44.6995 25.5003 43.9172 25.5H35.4172V28.3333H40.4974L32.7369 36.0938L29.4672 31.7333C29.2215 31.4034 28.8446 31.1966 28.4344 31.1666C28.0247 31.1418 27.6239 31.2928 27.3322 31.5816L18.325 40.5875C15.8895 34.7909 16.859 28.1227 20.8446 23.2597C26.7845 16.012 37.4753 14.9517 44.7231 20.8918C51.9709 26.8317 53.0311 37.5225 47.0911 44.7703C46.5436 45.4382 45.9556 46.0533 45.3339 46.6155V38.25H42.5005V48.685C41.5926 49.2129 40.6438 49.6515 39.6672 49.9986V41.0833H36.8339V50.7387C35.8983 50.8986 34.9502 50.9804 34.0006 50.9827V45.3333H31.1673V50.7525C30.2098 50.5932 29.2617 50.3505 28.334 50.024V42.5H25.5005V48.7202C24.7086 48.2629 23.9429 47.7367 23.2125 47.1383L21.412 49.327C24.9613 52.2388 29.4097 53.8312 34.0005 53.8335C37.3903 53.8329 40.7232 52.9636 43.6813 51.3083C53.2404 45.9598 56.6538 33.8748 51.3052 24.3157Z" fill="#0066FF"/>
</g>
<defs>
<clipPath id="clip0_449_29826">
<rect width="68" height="68" fill="white"/>
</clipPath>
</defs>
</svg>
