<svg width="71" height="69" viewBox="0 0 71 69" fill="none" xmlns="http://www.w3.org/2000/svg">
<path d="M51 19V49H20V19H51Z" fill="#0066FF"/>
<path d="M9 34.25V11.4619C9 10.3723 9.87217 9.48323 10.9615 9.46228L35 9M9 34.25V58C9 59.1046 9.89543 60 11 60H35M9 34.25H0.5M35 9L59.0385 9.46228C60.1278 9.48323 61 10.3723 61 11.4619V33.75M35 9V0.5M61 33.75V58C61 59.1046 60.1046 60 59 60H35M61 33.75H70.5M35 60V68.5" stroke="#000F5C" stroke-width="3"/>
<path d="M34.3859 28.1055C34.3806 28.0909 34.3749 28.0766 34.3691 28.0623C34.0883 27.3805 33.4309 26.9403 32.6938 26.9403H32.6916C31.9536 26.9411 31.2961 27.383 31.0167 28.0662C31.012 28.078 31.0072 28.0897 31.0028 28.1017L26.8744 38.9412C26.5672 39.7477 26.9719 40.6503 27.7783 40.9575C28.5845 41.2647 29.4874 40.8598 29.7945 40.0534L30.4394 38.3603H34.9156L35.553 40.0491C35.7891 40.6748 36.3834 41.0603 37.015 41.0603C37.1983 41.0603 37.3847 41.0278 37.5664 40.9592C38.3738 40.6545 38.7811 39.753 38.4764 38.9456L34.3859 28.1055ZM31.6299 35.2352L32.688 32.4569L33.7364 35.2352H31.6299Z" fill="white"/>
<path d="M41.3553 26.9403C40.4925 26.9403 39.7928 27.6398 39.7928 28.5028V39.4972C39.7928 40.3602 40.4925 41.0597 41.3553 41.0597C42.2181 41.0597 42.9178 40.3602 42.9178 39.4972V28.5028C42.9178 27.6398 42.2181 26.9403 41.3553 26.9403Z" fill="white"/>
</svg>
