<svg width="48" height="47" viewBox="0 0 48 47" fill="none" xmlns="http://www.w3.org/2000/svg">
<path d="M31.2913 4.20842L23.9997 8.37508L16.708 4.20842L23.9997 0.041748L31.2913 4.20842Z" fill="#8AD3FE"/>
<path d="M31.2917 4.2085V12.5418L24 16.7085V8.37516L31.2917 4.2085Z" fill="url(#paint0_linear_389_9345)"/>
<path d="M23.9997 8.37516V16.7085L16.708 12.5418V4.2085L23.9997 8.37516Z" fill="#54A5FF"/>
<path d="M14.6248 34.4167L7.33317 38.5833L0.0415039 34.4167L7.33317 30.25L14.6248 34.4167Z" fill="#8AD3FE"/>
<path d="M14.6247 34.4167V42.7501L7.33301 46.9167V38.5834L14.6247 34.4167Z" fill="url(#paint1_linear_389_9345)"/>
<path d="M7.33317 38.5834V46.9167L0.0415039 42.7501V34.4167L7.33317 38.5834Z" fill="#54A5FF"/>
<path d="M47.9583 34.4167L40.6667 38.5833L33.375 34.4167L40.6667 30.25L47.9583 34.4167Z" fill="#8AD3FE"/>
<path d="M47.9582 34.4167V42.7501L40.6665 46.9167V38.5834L47.9582 34.4167Z" fill="url(#paint2_linear_389_9345)"/>
<path d="M40.6667 38.5834V46.9167L33.375 42.7501V34.4167L40.6667 38.5834Z" fill="#54A5FF"/>
<path d="M2.36423 27.2709C1.73968 23.1379 2.31233 18.9125 4.01441 15.0948C5.71649 11.2771 8.47672 8.02704 11.9684 5.72923C12.2005 5.57728 12.4834 5.52375 12.7549 5.5804C13.0265 5.63705 13.2644 5.79925 13.4163 6.03131C13.5683 6.26338 13.6218 6.5463 13.5651 6.81784C13.5085 7.08937 13.3463 7.32728 13.1142 7.47923C9.95376 9.5592 7.4557 12.5015 5.91599 15.9575C4.37629 19.4136 3.85946 23.2385 4.42673 26.9792C4.46028 27.2503 4.38602 27.5237 4.21995 27.7406C4.05387 27.9574 3.80926 28.1004 3.53881 28.1386C3.26836 28.1769 2.9937 28.1073 2.77401 27.945C2.55431 27.7827 2.40715 27.5406 2.36423 27.2709Z" fill="#FFB369"/>
<path d="M18.5311 45.1876C18.3955 45.1571 18.2673 45.0997 18.1542 45.0189C18.0411 44.938 17.9453 44.8354 17.8725 44.717C17.7997 44.5985 17.7514 44.4667 17.7303 44.3293C17.7092 44.1919 17.7159 44.0516 17.7499 43.9168C18.3019 41.7606 21.2186 45.146 28.9165 43.1668C29.1845 43.0977 29.4689 43.138 29.7073 43.2786C29.9456 43.4193 30.1183 43.6488 30.1874 43.9168C30.2564 44.1848 30.2162 44.4692 30.0756 44.7076C29.9349 44.9459 29.7053 45.1186 29.4374 45.1876C25.8591 46.099 22.1094 46.099 18.5311 45.1876Z" fill="#FFB369"/>
<path d="M43.5726 26.9792C44.1398 23.2385 43.623 19.4136 42.0833 15.9575C40.5436 12.5015 38.0455 9.5592 34.8851 7.47923C34.653 7.32728 34.4908 7.08937 34.4342 6.81784C34.3775 6.5463 34.431 6.26338 34.583 6.03131C34.7349 5.79925 34.9729 5.63705 35.2444 5.5804C35.5159 5.52375 35.7988 5.57728 36.0309 5.72923C39.5226 8.02704 42.2828 11.2771 43.9849 15.0948C45.687 18.9125 46.2596 23.1379 45.6351 27.2709C45.5921 27.5406 45.445 27.7827 45.2253 27.945C45.0056 28.1073 44.7309 28.1769 44.4605 28.1386C44.19 28.1004 43.9454 27.9574 43.7794 27.7406C43.6133 27.5237 43.539 27.2503 43.5726 26.9792Z" fill="#FFB369"/>
<defs>
<linearGradient id="paint0_linear_389_9345" x1="24" y1="10.4585" x2="31.2917" y2="10.4585" gradientUnits="userSpaceOnUse">
<stop stop-color="#54A5FF"/>
<stop offset="1" stop-color="#8AD3FE"/>
</linearGradient>
<linearGradient id="paint1_linear_389_9345" x1="7.33301" y1="40.6667" x2="14.6247" y2="40.6667" gradientUnits="userSpaceOnUse">
<stop stop-color="#54A5FF"/>
<stop offset="1" stop-color="#8AD3FE"/>
</linearGradient>
<linearGradient id="paint2_linear_389_9345" x1="40.6665" y1="40.6667" x2="47.9582" y2="40.6667" gradientUnits="userSpaceOnUse">
<stop stop-color="#54A5FF"/>
<stop offset="1" stop-color="#8AD3FE"/>
</linearGradient>
</defs>
</svg>
