<svg width="69" height="71" viewBox="0 0 69 71" fill="none" xmlns="http://www.w3.org/2000/svg">
<path d="M67.6197 32.82H37.7197V2C60.9037 2 67.3131 22.5467 67.6197 32.82Z" stroke="#000F5C" stroke-width="2.5"/>
<path d="M58.8801 26.8401H45.0801V12.1201C55.7804 12.1201 58.7385 21.9335 58.8801 26.8401Z" fill="#0066FF"/>
<path d="M30.95 7.87534V36.9293L4.10761 25.8109C6.49466 20.6482 10.2624 16.2351 15.0051 13.0661C19.7478 9.89717 25.2668 8.10501 30.95 7.87534ZM34.0708 40.0501H63.1248C62.8951 45.7333 61.1029 51.2523 57.934 55.995C54.765 60.7377 50.3519 64.5054 45.1892 66.8925L34.0708 40.0501ZM31.7611 41.0068L42.8795 67.8492C37.5411 69.8119 31.7563 70.2682 26.162 69.1554C20.5676 68.0426 15.3978 65.4073 11.2168 61.5511L31.7611 41.0068ZM9.44901 59.7833C5.59278 55.6023 2.95748 50.4325 1.8447 44.8381C0.731911 39.2438 1.18821 33.459 3.1509 28.1206L29.9933 39.239L9.44901 59.7833Z" stroke="#000F5C" stroke-width="2.5"/>
</svg>
