<svg width="46" height="48" viewBox="0 0 46 48" fill="none" xmlns="http://www.w3.org/2000/svg">
<path d="M33.6356 24C26.613 25.3855 19.3874 25.3855 12.3648 24C-1.45813 20.875 6.46895 14.625 23.0002 14.625C39.719 14.625 47.3231 20.9375 33.6356 24Z" fill="url(#paint0_linear_389_9328)"/>
<path d="M40.7087 19.8335V28.1668C40.7087 29.3439 39.3857 30.4272 37.1566 31.2918C27.0837 35.2606 5.29199 33.1564 5.29199 28.1668V19.8335C5.29199 21.5314 8.07324 23.0418 12.3649 24.0002C23.8128 26.5418 40.7087 24.1668 40.7087 19.8335Z" fill="url(#paint1_linear_389_9328)"/>
<path d="M33.6354 38.5834C17.3541 42.198 -3.26048 35.9897 8.84369 31.2917C15.9062 34.073 30.1041 34.0626 37.1562 31.2917C43.552 33.7709 40.7083 37.0001 33.6354 38.5834Z" fill="#D7E9F7"/>
<path d="M40.7087 34.4167V42.7501C40.7087 45.6251 32.7816 47.9584 23.0003 47.9584C13.2191 47.9584 5.29199 45.6251 5.29199 42.7501V34.4167C5.29199 36.1147 8.07324 37.6251 12.3649 38.5834C19.3875 39.9689 26.6131 39.9689 33.6357 38.5834C37.9274 37.6251 40.7087 36.1147 40.7087 34.4167Z" fill="url(#paint2_linear_389_9328)"/>
<path d="M21.9585 20.8751V4.20841C21.9585 3.93215 22.0682 3.6672 22.2636 3.47185C22.4589 3.27649 22.7239 3.16675 23.0002 3.16675C23.2764 3.16675 23.5414 3.27649 23.7367 3.47185C23.9321 3.6672 24.0418 3.93215 24.0418 4.20841V20.8751C24.0418 21.1513 23.9321 21.4163 23.7367 21.6117C23.5414 21.807 23.2764 21.9167 23.0002 21.9167C22.7239 21.9167 22.4589 21.807 22.2636 21.6117C22.0682 21.4163 21.9585 21.1513 21.9585 20.8751Z" fill="#FFB369"/>
<path d="M27.167 17.7502V7.3335C27.167 6.50469 27.4962 5.70984 28.0823 5.12379C28.6683 4.53774 29.4632 4.2085 30.292 4.2085H35.5003C35.7766 4.2085 36.0415 4.31824 36.2369 4.51359C36.4322 4.70894 36.542 4.9739 36.542 5.25016C36.542 5.52643 36.4322 5.79138 36.2369 5.98673C36.0415 6.18208 35.7766 6.29183 35.5003 6.29183H30.292C30.0157 6.29183 29.7508 6.40158 29.5554 6.59693C29.3601 6.79228 29.2503 7.05723 29.2503 7.3335V17.7502C29.2503 18.0264 29.1406 18.2914 28.9452 18.4867C28.7499 18.6821 28.4849 18.7918 28.2087 18.7918C27.9324 18.7918 27.6674 18.6821 27.4721 18.4867C27.2767 18.2914 27.167 18.0264 27.167 17.7502Z" fill="#FFB369"/>
<path d="M32.375 19.8333V14.625C32.375 13.7962 32.7042 13.0013 33.2903 12.4153C33.8763 11.8292 34.6712 11.5 35.5 11.5H41.75C42.0263 11.5 42.2912 11.6097 42.4866 11.8051C42.6819 12.0004 42.7917 12.2654 42.7917 12.5417C42.7917 12.8179 42.6819 13.0829 42.4866 13.2782C42.2912 13.4736 42.0263 13.5833 41.75 13.5833H35.5C35.2237 13.5833 34.9588 13.6931 34.7634 13.8884C34.5681 14.0838 34.4583 14.3487 34.4583 14.625V19.8333C34.4583 20.1096 34.3486 20.3746 34.1532 20.5699C33.9579 20.7653 33.6929 20.875 33.4167 20.875C33.1404 20.875 32.8754 20.7653 32.6801 20.5699C32.4847 20.3746 32.375 20.1096 32.375 19.8333Z" fill="#FFB369"/>
<path d="M16.7502 17.7502V7.3335C16.7502 7.05723 16.6404 6.79228 16.4451 6.59693C16.2497 6.40158 15.9848 6.29183 15.7085 6.29183H10.5002C10.2239 6.29183 9.95894 6.18208 9.76359 5.98673C9.56824 5.79138 9.4585 5.52643 9.4585 5.25016C9.4585 4.9739 9.56824 4.70894 9.76359 4.51359C9.95894 4.31824 10.2239 4.2085 10.5002 4.2085H15.7085C16.5373 4.2085 17.3322 4.53774 17.9182 5.12379C18.5043 5.70984 18.8335 6.50469 18.8335 7.3335V17.7502C18.8335 18.0264 18.7238 18.2914 18.5284 18.4867C18.333 18.6821 18.0681 18.7918 17.7918 18.7918C17.5156 18.7918 17.2506 18.6821 17.0553 18.4867C16.8599 18.2914 16.7502 18.0264 16.7502 17.7502Z" fill="#FFB369"/>
<path d="M11.5418 19.8333V14.625C11.5418 14.3487 11.4321 14.0838 11.2367 13.8884C11.0414 13.6931 10.7764 13.5833 10.5002 13.5833H4.25016C3.9739 13.5833 3.70894 13.4736 3.51359 13.2782C3.31824 13.0829 3.2085 12.8179 3.2085 12.5417C3.2085 12.2654 3.31824 12.0004 3.51359 11.8051C3.70894 11.6097 3.9739 11.5 4.25016 11.5H10.5002C11.329 11.5 12.1238 11.8292 12.7099 12.4153C13.2959 13.0013 13.6252 13.7962 13.6252 14.625V19.8333C13.6252 20.1096 13.5154 20.3746 13.3201 20.5699C13.1247 20.7653 12.8598 20.875 12.5835 20.875C12.3072 20.875 12.0423 20.7653 11.8469 20.5699C11.6516 20.3746 11.5418 20.1096 11.5418 19.8333Z" fill="#FFB369"/>
<path d="M23.0003 4.20842C24.1509 4.20842 25.0837 3.27567 25.0837 2.12508C25.0837 0.974488 24.1509 0.041748 23.0003 0.041748C21.8497 0.041748 20.917 0.974488 20.917 2.12508C20.917 3.27567 21.8497 4.20842 23.0003 4.20842Z" fill="url(#paint3_linear_389_9328)"/>
<path d="M37.5833 7.33342C38.7339 7.33342 39.6667 6.40067 39.6667 5.25008C39.6667 4.09949 38.7339 3.16675 37.5833 3.16675C36.4327 3.16675 35.5 4.09949 35.5 5.25008C35.5 6.40067 36.4327 7.33342 37.5833 7.33342Z" fill="url(#paint4_linear_389_9328)"/>
<path d="M43.8333 14.6252C44.9839 14.6252 45.9167 13.6924 45.9167 12.5418C45.9167 11.3912 44.9839 10.4585 43.8333 10.4585C42.6827 10.4585 41.75 11.3912 41.75 12.5418C41.75 13.6924 42.6827 14.6252 43.8333 14.6252Z" fill="url(#paint5_linear_389_9328)"/>
<path d="M8.41683 7.33342C9.56742 7.33342 10.5002 6.40067 10.5002 5.25008C10.5002 4.09949 9.56742 3.16675 8.41683 3.16675C7.26624 3.16675 6.3335 4.09949 6.3335 5.25008C6.3335 6.40067 7.26624 7.33342 8.41683 7.33342Z" fill="url(#paint6_linear_389_9328)"/>
<path d="M2.16683 14.6252C3.31742 14.6252 4.25016 13.6924 4.25016 12.5418C4.25016 11.3912 3.31742 10.4585 2.16683 10.4585C1.01624 10.4585 0.0834961 11.3912 0.0834961 12.5418C0.0834961 13.6924 1.01624 14.6252 2.16683 14.6252Z" fill="url(#paint7_linear_389_9328)"/>
<defs>
<linearGradient id="paint0_linear_389_9328" x1="5.28145" y1="19.8333" x2="40.7085" y2="19.8333" gradientUnits="userSpaceOnUse">
<stop stop-color="#D3E6F5"/>
<stop offset="1" stop-color="#F0F7FC"/>
</linearGradient>
<linearGradient id="paint1_linear_389_9328" x1="5.29199" y1="26.6043" x2="40.7087" y2="26.6043" gradientUnits="userSpaceOnUse">
<stop stop-color="#54A5FF"/>
<stop offset="1" stop-color="#8AD3FE"/>
</linearGradient>
<linearGradient id="paint2_linear_389_9328" x1="-1.99967" y1="41.1876" x2="-0.958008" y2="41.1876" gradientUnits="userSpaceOnUse">
<stop stop-color="#54A5FF"/>
<stop offset="1" stop-color="#8AD3FE"/>
</linearGradient>
<linearGradient id="paint3_linear_389_9328" x1="20.917" y1="2.12508" x2="25.0837" y2="2.12508" gradientUnits="userSpaceOnUse">
<stop stop-color="#54A5FF"/>
<stop offset="1" stop-color="#8AD3FE"/>
</linearGradient>
<linearGradient id="paint4_linear_389_9328" x1="35.5" y1="5.25008" x2="39.6667" y2="5.25008" gradientUnits="userSpaceOnUse">
<stop stop-color="#54A5FF"/>
<stop offset="1" stop-color="#8AD3FE"/>
</linearGradient>
<linearGradient id="paint5_linear_389_9328" x1="41.75" y1="12.5418" x2="45.9167" y2="12.5418" gradientUnits="userSpaceOnUse">
<stop stop-color="#54A5FF"/>
<stop offset="1" stop-color="#8AD3FE"/>
</linearGradient>
<linearGradient id="paint6_linear_389_9328" x1="6.3335" y1="5.25008" x2="10.5002" y2="5.25008" gradientUnits="userSpaceOnUse">
<stop stop-color="#54A5FF"/>
<stop offset="1" stop-color="#8AD3FE"/>
</linearGradient>
<linearGradient id="paint7_linear_389_9328" x1="0.0834961" y1="12.5418" x2="4.25016" y2="12.5418" gradientUnits="userSpaceOnUse">
<stop stop-color="#54A5FF"/>
<stop offset="1" stop-color="#8AD3FE"/>
</linearGradient>
</defs>
</svg>
