<svg width="73" height="73" viewBox="0 0 73 73" fill="none" xmlns="http://www.w3.org/2000/svg">
<g clip-path="url(#clip0_124_21253)">
<path d="M70.1116 29.8635C69.8892 29.8955 69.6753 29.9711 69.4822 30.0859C69.289 30.2007 69.1204 30.3524 68.9859 30.5324C68.8514 30.7124 68.7537 30.9172 68.6984 31.135C68.6431 31.3527 68.6312 31.5793 68.6635 31.8016C69.3592 36.5256 69.0016 41.345 67.6162 45.9146C66.2309 50.4842 63.8521 54.6908 60.6503 58.2332L38.2098 35.7928V4.0562C39.2038 4.10939 40.2016 4.19167 41.1984 4.33586C41.6471 4.40025 42.1031 4.28388 42.4661 4.01231C42.8292 3.74073 43.0695 3.33617 43.1345 2.88748C43.1994 2.43879 43.0836 1.98267 42.8125 1.61932C42.5413 1.25597 42.137 1.0151 41.6884 0.949626C34.2173 -0.141213 26.5924 1.14931 19.8964 4.63797C13.2004 8.12662 7.77356 13.6361 4.38651 20.3841C0.999449 27.132 -0.175696 34.7756 1.02793 42.2293C2.23156 49.6831 5.75278 56.5683 11.0916 61.9072C16.4305 67.2462 23.3156 70.7675 30.7693 71.9713C38.2231 73.175 45.8666 72 52.6146 68.6131C59.3627 65.2262 64.8723 59.7994 68.361 53.1035C71.8498 46.4075 73.1405 38.7827 72.0498 31.3115C71.9844 30.8627 71.7436 30.4581 71.3802 30.1866C71.0168 29.9151 70.5606 29.7989 70.1116 29.8635ZM34.7879 4.03889V34.7902H4.03653C4.46915 26.7749 7.84791 19.2021 13.5238 13.5261C19.1998 7.85023 26.7726 4.4715 34.7879 4.03889ZM4.03653 38.2121H35.7904L58.2309 60.6526C53.6715 64.7624 48.0412 67.4964 41.9919 68.5379C35.9427 69.5794 29.7222 68.8858 24.0509 66.5375C18.3796 64.1892 13.4897 60.2822 9.94752 55.2691C6.40534 50.256 4.35588 44.342 4.03653 38.2121Z" fill="#000F5C"/>
<path d="M22.8114 24.5247H29.6551C30.1089 24.5247 30.5441 24.3444 30.8649 24.0235C31.1858 23.7027 31.366 23.2675 31.366 22.8137C31.366 22.36 31.1858 21.9248 30.8649 21.6039C30.5441 21.283 30.1089 21.1028 29.6551 21.1028H22.8114C22.3576 21.1028 21.9224 21.283 21.6015 21.6039C21.2807 21.9248 21.1004 22.36 21.1004 22.8137C21.1004 23.2675 21.2807 23.7027 21.6015 24.0235C21.9224 24.3444 22.3576 24.5247 22.8114 24.5247Z" fill="#000F5C"/>
<path d="M18.2489 31.3684H29.6551C30.1089 31.3684 30.5441 31.1881 30.8649 30.8673C31.1858 30.5464 31.366 30.1112 31.366 29.6575C31.366 29.2037 31.1858 28.7685 30.8649 28.4477C30.5441 28.1268 30.1089 27.9465 29.6551 27.9465H18.2489C17.7951 27.9465 17.3599 28.1268 17.039 28.4477C16.7182 28.7685 16.5379 29.2037 16.5379 29.6575C16.5379 30.1112 16.7182 30.5464 17.039 30.8673C17.3599 31.1881 17.7951 31.3684 18.2489 31.3684Z" fill="#000F5C"/>
<path d="M31.9364 55.3215H38.7801C39.2339 55.3215 39.6691 55.1413 39.9899 54.8204C40.3108 54.4995 40.491 54.0644 40.491 53.6106C40.491 53.1568 40.3108 52.7216 39.9899 52.4008C39.6691 52.0799 39.2339 51.8997 38.7801 51.8997H31.9364C31.4826 51.8997 31.0474 52.0799 30.7265 52.4008C30.4057 52.7216 30.2254 53.1568 30.2254 53.6106C30.2254 54.0644 30.4057 54.4995 30.7265 54.8204C31.0474 55.1413 31.4826 55.3215 31.9364 55.3215Z" fill="#000F5C"/>
<path d="M38.7801 58.7434H27.3739C26.9201 58.7434 26.4849 58.9237 26.164 59.2445C25.8432 59.5654 25.6629 60.0006 25.6629 60.4543C25.6629 60.9081 25.8432 61.3433 26.164 61.6642C26.4849 61.985 26.9201 62.1653 27.3739 62.1653H38.7801C39.2339 62.1653 39.6691 61.985 39.9899 61.6642C40.3108 61.3433 40.491 60.9081 40.491 60.4543C40.491 60.0006 40.3108 59.5654 39.9899 59.2445C39.6691 58.9237 39.2339 58.7434 38.7801 58.7434Z" fill="#000F5C"/>
<path d="M57.0301 0.571537C53.3986 0.56909 49.8833 1.85106 47.1059 4.19068C44.3285 6.5303 42.468 9.77681 41.8535 13.356C41.2391 16.9351 41.9103 20.6162 43.7483 23.7482C45.5864 26.8802 48.4729 29.2612 51.8973 30.4701V39.9231C51.8973 41.2844 52.4381 42.59 53.4007 43.5525C54.3633 44.5151 55.6688 45.0559 57.0301 45.0559C58.3914 45.0559 59.697 44.5151 60.6596 43.5525C61.6221 42.59 62.1629 41.2844 62.1629 39.9231V30.4701C65.5873 29.2612 68.4738 26.8802 70.3119 23.7482C72.15 20.6162 72.8211 16.9351 72.2067 13.356C71.5922 9.77681 69.7318 6.5303 66.9544 4.19068C64.177 1.85106 60.6616 0.56909 57.0301 0.571537ZM58.741 33.6497H55.3192V31.2675C56.4558 31.4018 57.6044 31.4018 58.741 31.2675V33.6497ZM57.0301 27.6614C54.7178 27.6614 52.4574 26.9757 50.5347 25.691C48.6121 24.4064 47.1136 22.5804 46.2287 20.4441C45.3438 18.3078 45.1122 15.957 45.5633 13.6891C46.0145 11.4212 47.128 9.33797 48.763 7.7029C50.3981 6.06783 52.4813 4.95433 54.7492 4.50322C57.0171 4.0521 59.3679 4.28363 61.5042 5.16852C63.6405 6.05342 65.4665 7.55193 66.7512 9.47458C68.0358 11.3972 68.7215 13.6576 68.7215 15.97C68.7181 19.0697 67.4852 22.0415 65.2934 24.2333C63.1016 26.4251 60.1298 27.658 57.0301 27.6614Z" fill="#0066FF"/>
<path d="M57.0301 7.13016C55.6189 7.12647 54.2273 7.4616 52.9725 8.10739C51.7177 8.75318 50.6362 9.69076 49.819 10.8413C49.0017 11.9919 48.4726 13.3218 48.2761 14.7193C48.0796 16.1168 48.2215 17.5411 48.6897 18.8724L53.1705 14.3916C53.3028 14.2592 53.46 14.1541 53.633 14.0825C53.8059 14.0108 53.9913 13.9739 54.1785 13.9739C54.3658 13.9739 54.5512 14.0108 54.7241 14.0825C54.8971 14.1541 55.0543 14.2592 55.1866 14.3916L57.6004 16.8054L60.5845 13.8213C60.7168 13.6885 60.874 13.5831 61.0471 13.5111C61.2202 13.4392 61.4057 13.402 61.5932 13.4019C61.7806 13.4017 61.9662 13.4385 62.1394 13.5101C62.3127 13.5818 62.47 13.6869 62.6026 13.8194C62.7351 13.952 62.8402 14.1093 62.9119 14.2825C62.9835 14.4557 63.0203 14.6414 63.0201 14.8288C63.02 15.0163 62.9828 15.2018 62.9108 15.3749C62.8389 15.548 62.7335 15.7052 62.6007 15.8374L58.6085 19.8296C58.4761 19.9621 58.319 20.0671 58.146 20.1388C57.973 20.2105 57.7877 20.2473 57.6004 20.2473C57.4132 20.2473 57.2278 20.2105 57.0548 20.1388C56.8819 20.0671 56.7247 19.9621 56.5923 19.8296L54.1785 17.4158L50.1229 21.4715C51.0546 22.6412 52.268 23.5552 53.6493 24.128C55.0306 24.7009 56.5347 24.9137 58.0208 24.7467C59.5068 24.5797 60.9262 24.0383 62.1459 23.1732C63.3656 22.308 64.3459 21.1475 64.9947 19.8002C65.6436 18.4529 65.94 16.963 65.856 15.47C65.7721 13.9769 65.3105 12.5296 64.5147 11.2636C63.7188 9.99757 62.6147 8.95423 61.3056 8.2313C59.9966 7.50837 58.5255 7.12949 57.0301 7.13016Z" fill="#0066FF"/>
</g>
<defs>
<clipPath id="clip0_124_21253">
<rect width="73" height="73" fill="white"/>
</clipPath>
</defs>
</svg>
