<svg width="60" height="60" viewBox="0 0 60 60" fill="none" xmlns="http://www.w3.org/2000/svg">
<g clip-path="url(#clip0_449_29871)">
<path d="M21.211 24.6094V33.5157C21.211 34.4865 21.9981 35.2735 22.9688 35.2735H37.0313C38.0021 35.2735 38.7892 34.4865 38.7892 33.5157V24.6094H40.547C41.2579 24.6094 41.8988 24.1811 42.171 23.5243C42.4429 22.8674 42.2926 22.1113 41.7899 21.6086L31.243 11.0617C30.5566 10.3753 29.4436 10.3753 28.7571 11.0617L18.2102 21.6086C17.7075 22.1113 17.5571 22.8674 17.8291 23.5243C18.1012 24.1811 18.7422 24.6094 19.4531 24.6094H21.211ZM30.0001 14.7906L36.4145 21.205C35.748 21.4549 35.2735 22.0979 35.2735 22.8516V31.7579H31.7579V26.3672C31.7579 25.3965 30.9709 24.6094 30.0001 24.6094C29.0293 24.6094 28.2423 25.3965 28.2423 26.3672V31.7579H24.7267V22.8516C24.7267 22.0979 24.2523 21.4549 23.5857 21.2051L30.0001 14.7906Z" fill="#0066FF"/>
<path d="M47.5781 52.9688H42.3047V42.3047H45.8204C53.6391 42.3047 60 35.9963 60 28.2422C60 21.5109 55.1448 15.7035 48.6885 14.3564C46.4602 5.96695 38.79 0 30 0C21.21 0 13.54 5.96695 11.3116 14.3564C4.8552 15.7035 0 21.5105 0 28.2422C0 35.9963 6.36094 42.3047 14.1797 42.3047H17.6953V52.9688H12.4219C11.4511 52.9688 10.6641 53.7558 10.6641 54.7266C10.6641 55.6973 11.4511 56.4844 12.4219 56.4844H19.4531C20.4239 56.4844 21.2109 55.6973 21.2109 54.7266V42.3047H28.2422V51.2109C28.2422 52.1817 29.0292 52.9688 30 52.9688C30.9708 52.9688 31.7578 52.1817 31.7578 51.2109V42.3047H38.7891V54.7266C38.7891 55.6973 39.5761 56.4844 40.5469 56.4844H47.5781C48.5489 56.4844 49.3359 55.6973 49.3359 54.7266C49.3359 53.7558 48.5489 52.9688 47.5781 52.9688ZM3.51562 28.2422C3.51562 22.911 7.66336 18.2575 12.9582 17.6479C13.7174 17.5604 14.3331 16.9927 14.4816 16.2431C15.9422 8.86828 22.4686 3.51562 30 3.51562C37.5314 3.51562 44.0578 8.86828 45.5186 16.2431C45.667 16.9927 46.2827 17.5605 47.0418 17.6479C52.3366 18.2575 56.4844 22.911 56.4844 28.2422C56.4844 34.0577 51.7005 38.7891 45.8204 38.7891H14.1797C8.29945 38.7891 3.51562 34.0577 3.51562 28.2422Z" fill="#000F5C"/>
<path d="M30 60C30.9708 60 31.7578 59.213 31.7578 58.2422C31.7578 57.2714 30.9708 56.4844 30 56.4844C29.0292 56.4844 28.2422 57.2714 28.2422 58.2422C28.2422 59.213 29.0292 60 30 60Z" fill="#000F5C"/>
<path d="M54.6094 56.4844C55.5802 56.4844 56.3672 55.6974 56.3672 54.7266C56.3672 53.7557 55.5802 52.9688 54.6094 52.9688C53.6386 52.9688 52.8516 53.7557 52.8516 54.7266C52.8516 55.6974 53.6386 56.4844 54.6094 56.4844Z" fill="#000F5C"/>
<path d="M5.39062 56.4844C6.36144 56.4844 7.14844 55.6974 7.14844 54.7266C7.14844 53.7557 6.36144 52.9688 5.39062 52.9688C4.41981 52.9688 3.63281 53.7557 3.63281 54.7266C3.63281 55.6974 4.41981 56.4844 5.39062 56.4844Z" fill="#000F5C"/>
</g>
<defs>
<clipPath id="clip0_449_29871">
<rect width="60" height="60" fill="white"/>
</clipPath>
</defs>
</svg>
