<svg width="74" height="74" viewBox="0 0 74 74" fill="none" xmlns="http://www.w3.org/2000/svg">
<g clip-path="url(#clip0_90_238)">
<path d="M37 23.9448C29.857 23.9448 23.9922 29.7571 23.9922 36.9526C23.9922 44.0928 29.7954 49.9604 37 49.9604C44.1814 49.9604 50.0078 44.1165 50.0078 36.9526C50.0078 29.7712 44.1656 23.9448 37 23.9448Z" fill="#0066FF"/>
<path d="M25.4375 32.6167C26.2352 32.6167 26.8828 31.9691 26.8828 31.1714C26.8828 30.3652 26.2279 29.7261 25.4375 29.7261C24.6397 29.7261 23.9922 30.3719 23.9922 31.1714C23.9922 31.9765 24.6488 32.6167 25.4375 32.6167Z" fill="#000F5C"/>
<path d="M11.1504 48.2097C18.6107 54.0209 27.6196 58.6323 37 58.6323C46.3815 58.6323 55.391 54.0197 62.8496 48.2097C69.3987 43.1082 73.506 38.0744 73.6776 37.8622C74.1078 37.332 74.1078 36.5727 73.6776 36.0425C73.506 35.8308 69.3993 30.7965 62.8496 25.695C55.3893 19.8838 46.3804 15.2729 37 15.2729C27.6196 15.2729 18.6101 19.8844 11.1504 25.695C4.60128 30.7965 0.494 35.8308 0.322369 36.0425C-0.107273 36.5727 -0.107273 37.332 0.322369 37.8622C0.494 38.0744 4.60128 43.1082 11.1504 48.2097ZM12.9779 27.9358C18.7123 23.4774 27.5349 18.1636 37 18.1636C46.4657 18.1636 55.2883 23.4779 61.0227 27.9358C65.7233 31.5909 69.1802 35.2883 70.6509 36.9526C69.1802 38.6164 65.7233 42.3144 61.0227 45.9689C55.2883 50.4268 46.4657 55.7417 37 55.7417C27.5349 55.7417 18.7123 50.4268 12.9779 45.9689C8.2761 42.3138 4.81921 38.6159 3.34962 36.9526C4.81921 35.2883 8.27667 31.5909 12.9779 27.9358Z" fill="#000F5C"/>
<path d="M37 51.4058C44.9695 51.4058 51.4531 44.9222 51.4531 36.9526C51.4531 28.9831 44.9695 22.4995 37 22.4995C33.7684 22.4995 30.7129 23.5417 28.1633 25.5143C27.5321 26.0027 27.4163 26.9105 27.9047 27.5417C28.3936 28.1735 29.3009 28.2892 29.9321 27.8003C31.9708 26.2234 34.4142 25.3896 37 25.3896C43.3752 25.3896 48.5625 30.5769 48.5625 36.9521C48.5625 43.3278 43.3752 48.5146 37 48.5146C30.3041 48.5146 25.293 42.9146 25.4386 36.803C25.4573 36.0053 24.8261 35.343 24.0277 35.3238C23.2283 35.3086 22.5678 35.9364 22.5486 36.7347C22.3645 44.4801 28.6917 51.4058 37 51.4058Z" fill="#000F5C"/>
<path d="M44.2265 36.9526C44.2265 32.9679 40.9847 29.7261 37 29.7261C33.0152 29.7261 29.7734 32.9679 29.7734 36.9526C29.7734 40.9374 33.0152 44.1792 37 44.1792C40.9847 44.1792 44.2265 40.9374 44.2265 36.9526ZM32.664 36.9526C32.664 34.5617 34.609 32.6167 37 32.6167C39.3909 32.6167 41.3359 34.5617 41.3359 36.9526C41.3359 39.343 39.3909 41.2886 37 41.2886C34.609 41.2886 32.664 39.343 32.664 36.9526Z" fill="white"/>
<path d="M63.5546 0H49.1015C48.3032 0 47.6562 0.647003 47.6562 1.44531C47.6562 2.24362 48.3032 2.89062 49.1015 2.89062H62.1093V15.851C62.1093 16.6488 62.7563 17.2963 63.5546 17.2963C64.3529 17.2963 64.9999 16.6488 64.9999 15.851V1.44531C64.9999 0.647003 64.3529 0 63.5546 0Z" fill="#000F5C"/>
<path d="M9.44531 18.1639C10.2436 18.1639 10.8906 17.5163 10.8906 16.7186V2.89099H24.6211C25.4194 2.89099 26.0664 2.24399 26.0664 1.44568C26.0664 0.647369 25.4194 0.000366211 24.6211 0.000366211H9.44531C8.647 0.000366211 8 0.647369 8 1.44568V16.7186C8 17.5163 8.647 18.1639 9.44531 18.1639Z" fill="#000F5C"/>
<path d="M26.2646 72.5547C26.2646 71.7564 25.6176 71.1094 24.8193 71.1094H10.8906V57.3315C10.8906 56.5332 10.2436 55.8862 9.44531 55.8862C8.647 55.8862 8 56.5332 8 57.3315V72.5547C8 73.3531 8.647 74.0001 9.44531 74.0001H24.8193C25.6176 74.0001 26.2646 73.3531 26.2646 72.5547Z" fill="#000F5C"/>
<path d="M64.5546 55.7947C63.7563 55.7947 63.1093 56.4422 63.1093 57.24V71.1093H49.1807C48.3829 71.1093 47.7354 71.7563 47.7354 72.5547C47.7354 73.353 48.3829 74 49.1807 74H64.5546C65.3529 74 65.9999 73.353 65.9999 72.5547V57.24C65.9999 56.4422 65.3529 55.7947 64.5546 55.7947Z" fill="#000F5C"/>
</g>
<defs>
<clipPath id="clip0_90_238">
<rect width="74" height="74" fill="white"/>
</clipPath>
</defs>
</svg>
