<svg width="80" height="80" viewBox="0 0 80 80" fill="none" xmlns="http://www.w3.org/2000/svg">
<path d="M63.5582 32.268V24.5237H60.5108C60.0991 22.7734 59.4163 21.1226 58.4728 19.5983L60.6257 17.4441L55.1505 11.9688L52.9963 14.1218C51.4706 13.1782 49.8211 12.4955 48.0709 12.0837V9.03503H40.3266V12.0824C38.5764 12.4942 36.9255 13.1769 35.4012 14.1205L33.247 11.9675L27.7718 17.4428L29.9247 19.597C28.9812 21.1226 28.2984 22.7721 27.8866 24.5224H24.8367V32.2667H27.8841C28.2958 34.0169 28.9786 35.6677 29.9221 37.192L27.7692 39.3463L33.2444 44.8215L35.4025 42.6634C35.6839 42.8338 35.9807 43.0016 36.297 43.1707L37.5115 40.8938L39.0346 40.8951V37.3056C35.951 35.5193 33.8717 32.1918 33.8717 28.3726C33.8717 22.6702 38.495 18.0468 44.1974 18.0468C49.8998 18.0468 54.5232 22.6702 54.5232 28.3726C54.5232 32.1918 52.4438 35.5193 49.3603 37.3056V40.8861L50.9053 40.8848L52.1328 43.1565C52.4361 42.9925 52.7213 42.8286 52.9911 42.666L55.1492 44.8241L60.6244 39.3488L58.4715 37.1946C59.415 35.669 60.0978 34.0195 60.5095 32.2692H63.5582V32.268Z" fill="#0066FF"/>
<path d="M73.8594 29.6736C73.8594 13.519 60.7212 0.209096 44.573 0.00258144C44.4465 0.00129072 44.3226 0 44.1974 0C30.2538 0 18.0668 9.93208 15.133 23.7466C14.4076 27.1554 14.3173 30.6713 14.862 34.2066L6.13672 49.8127L15.8016 52.5993V68.3835H28.7088V80H31.2902V65.8021H18.3831V50.6581L9.97661 48.2341L17.557 34.6777L17.4808 34.2286C16.9103 30.8649 16.9697 27.5181 17.659 24.2836C20.363 11.5455 31.6581 2.40848 44.5407 2.58402C59.2846 2.77246 71.2793 14.9259 71.2793 29.6749L71.2831 34.3847C71.2896 44.726 66.199 54.4064 57.6635 60.2804L57.1046 60.6663V80H59.686V62.0151C68.5842 55.6248 73.8697 45.3481 73.8633 34.3834L73.8594 29.6736Z" fill="#000F5C"/>
<path d="M55.8139 28.3712C55.8139 21.9654 50.6032 16.7548 44.1974 16.7548C37.7916 16.7548 32.5809 21.9654 32.5809 28.3712C32.5809 32.2421 34.5415 35.8729 37.7438 38.0193V40.0535C36.2724 40.353 35.1624 41.6566 35.1624 43.2145C35.1624 44.3632 35.769 45.3648 36.6738 45.9379C36.537 46.2967 36.4531 46.6814 36.4531 47.0866C36.4531 48.8665 37.9 50.3134 39.6799 50.3134H48.7149C50.4948 50.3134 51.9417 48.8665 51.9417 47.0866C51.9417 46.6801 51.8578 46.2954 51.721 45.9379C52.6258 45.3661 53.2324 44.3632 53.2324 43.2145C53.2324 41.6553 52.1224 40.353 50.651 40.0535V38.0193C53.8533 35.8729 55.8139 32.2421 55.8139 28.3712ZM35.1624 28.3712C35.1624 23.3903 39.2165 19.3362 44.1974 19.3362C49.1783 19.3362 53.2324 23.3903 53.2324 28.3712C53.2324 31.5774 51.5003 34.5731 48.7136 36.1878L48.0695 36.5608V39.9877H45.4881V32.0059C46.9866 31.4715 48.0695 30.0517 48.0695 28.3712C48.0695 26.2364 46.3322 24.4991 44.1974 24.4991C42.0625 24.4991 40.3252 26.2364 40.3252 28.3712C40.3252 30.0517 41.4082 31.4715 42.9067 32.0059V39.9877H40.3252V36.5608L39.6812 36.1878C36.8945 34.5731 35.1624 31.5787 35.1624 28.3712ZM42.9067 28.3712C42.9067 27.6587 43.4849 27.0805 44.1974 27.0805C44.9099 27.0805 45.4881 27.6587 45.4881 28.3712C45.4881 29.0837 44.9099 29.6619 44.1974 29.6619C43.4849 29.6619 42.9067 29.0837 42.9067 28.3712ZM38.3892 42.5691H50.0056C50.3606 42.5691 50.651 42.8595 50.651 43.2145C50.651 43.5694 50.3606 43.8598 50.0056 43.8598H48.7149H39.6799H38.3892C38.0342 43.8598 37.7438 43.5694 37.7438 43.2145C37.7438 42.8595 38.0342 42.5691 38.3892 42.5691ZM48.7149 47.732H39.6799C39.3249 47.732 39.0345 47.4416 39.0345 47.0866C39.0345 46.7317 39.3249 46.4413 39.6799 46.4413H48.7149C49.0699 46.4413 49.3603 46.7317 49.3603 47.0866C49.3603 47.4416 49.0699 47.732 48.7149 47.732Z" fill="#000F5C"/>
<path d="M45.4675 52.8949H42.886V55.4763H45.4675V52.8949Z" fill="#000F5C"/>
<path d="M45.4675 58.0577H42.886V60.6392H45.4675V58.0577Z" fill="#000F5C"/>
<path d="M45.4675 63.2207H42.886V65.8021H45.4675V63.2207Z" fill="#000F5C"/>
<path d="M45.4675 68.3835H42.886V70.965H45.4675V68.3835Z" fill="#000F5C"/>
</svg>
