<svg width="49" height="49" viewBox="0 0 49 49" fill="none" xmlns="http://www.w3.org/2000/svg">
<path d="M35.4168 18.75L25.0002 25L14.5835 18.75L25.0002 12.5L35.4168 18.75Z" fill="#8AD3FE"/>
<path d="M25.0002 25V37.5L14.5835 31.25V18.75L25.0002 25Z" fill="#54A5FF"/>
<path d="M35.4167 18.75V31.25L25 37.5V25L35.4167 18.75Z" fill="url(#paint0_linear_389_9305)"/>
<path d="M46.2708 13.9582C46.1437 13.7123 45.9241 13.527 45.6604 13.443C45.3967 13.359 45.1104 13.3832 44.8645 13.5103C44.6186 13.6374 44.4333 13.8569 44.3493 14.1207C44.2653 14.3844 44.2895 14.6707 44.4166 14.9166C46.7886 19.4735 47.4811 24.72 46.3727 29.7363C45.2643 34.7527 42.4257 39.2189 38.3544 42.3522C34.2832 45.4855 29.239 47.0859 24.1061 46.8729C18.9731 46.6599 14.0789 44.6472 10.2812 41.1874L10.9999 40.4686C11.1462 40.3236 11.2462 40.1384 11.2872 39.9365C11.3282 39.7346 11.3085 39.5251 11.2304 39.3344C11.1524 39.1438 11.0195 38.9805 10.8487 38.8654C10.6779 38.7502 10.4768 38.6883 10.2708 38.6874H7.29159C7.01532 38.6874 6.75037 38.7971 6.55502 38.9925C6.35967 39.1878 6.24992 39.4528 6.24992 39.7291C6.24992 42.9374 6.15617 43.0207 6.552 43.4166C6.64884 43.5142 6.76405 43.5917 6.89099 43.6446C7.01792 43.6975 7.15407 43.7247 7.29159 43.7247C7.4291 43.7247 7.56525 43.6975 7.69219 43.6446C7.81912 43.5917 7.93433 43.5142 8.03117 43.4166L8.802 42.6457C12.9507 46.4565 18.3095 48.6835 23.9371 48.9355C29.5646 49.1876 35.1011 47.4487 39.5739 44.0241C44.0466 40.5996 47.1697 35.7085 48.3944 30.21C49.6192 24.7116 48.8672 18.9574 46.2708 13.9582Z" fill="#FFB369"/>
<path d="M9.53133 9.53113C13.5074 5.5486 18.8654 3.25164 24.4915 3.11778C30.1175 2.98392 35.5787 5.02345 39.7397 8.81238C39.0626 9.48946 38.4688 9.85405 38.7917 10.6665C39.1147 11.479 39.9584 11.3124 42.698 11.3124C42.9743 11.3124 43.2392 11.2026 43.4346 11.0073C43.6299 10.8119 43.7397 10.547 43.7397 10.2707C43.7397 7.62488 43.9792 6.72905 43.0938 6.36446C42.2084 5.99988 41.9272 6.62488 41.2084 7.34363C37.0636 3.50569 31.696 1.25569 26.0534 0.990944C20.4108 0.726195 14.8561 2.46372 10.3702 5.89671C5.88424 9.3297 2.75558 14.2374 1.53664 19.7531C0.317711 25.2688 1.08691 31.0379 3.70841 36.0415C3.8355 36.2874 4.05505 36.4727 4.31877 36.5567C4.5825 36.6407 4.86879 36.6165 5.11466 36.4895C5.36054 36.3624 5.54587 36.1428 5.62987 35.8791C5.71387 35.6154 5.68966 35.3291 5.56258 35.0832C3.40787 30.9588 2.63067 26.2527 3.34486 21.6545C4.05906 17.0563 6.2271 12.8077 9.53133 9.53113Z" fill="#FFB369"/>
<defs>
<linearGradient id="paint0_linear_389_9305" x1="25" y1="28.125" x2="35.4167" y2="28.125" gradientUnits="userSpaceOnUse">
<stop stop-color="#54A5FF"/>
<stop offset="1" stop-color="#8AD3FE"/>
</linearGradient>
</defs>
</svg>
